<?xml version="1.0" encoding="UTF-8"?>
<svg width="32px" height="32px" viewBox="0 0 32 32" version="1.1" xmlns="http://www.w3.org/2000/svg" xmlns:xlink="http://www.w3.org/1999/xlink">
    <!-- Generator: Sketch 46.2 (44496) - http://www.bohemiancoding.com/sketch -->
    <title>Facebook-color</title>
    <desc>Created with Sketch.</desc>
    <defs></defs>
    <g id="Mobile" stroke="none" stroke-width="1" fill="none" fill-rule="evenodd">
        <g id="Mobile-–-Sign-In" transform="translate(-43.000000, -152.000000)" fill="#FFFFFF">
            <g id="Facebook" transform="translate(29.000000, 140.589978)">
                <path d="M31.3001418,43.0008247 L16.1886476,43.0008247 C15.226603,43.0008247 14.447222,42.2209601 14.447222,41.2592903 L14.447222,13.190285 C14.447222,12.2283703 15.2267254,11.4488729 16.1886476,11.4488729 L44.2578707,11.4488729 C45.2195479,11.4488729 45.9991738,12.2283703 45.9991738,13.190285 L45.9991738,41.2592903 C45.9991738,42.2210825 45.2194255,43.0008247 44.2578707,43.0008247 L36.2176121,43.0008247 L36.2176121,30.7821701 L40.3188504,30.7821701 L40.9329526,26.0203436 L36.2176121,26.0203436 L36.2176121,22.9802183 C36.2176121,21.6015596 36.6004465,20.6620492 38.5774248,20.6620492 L41.0989659,20.6609474 L41.0989659,16.4019316 C40.662875,16.3439008 39.1660619,16.2142499 37.4246364,16.2142499 C33.7891168,16.2142499 31.3001418,18.4333749 31.3001418,22.5086267 L31.3001418,26.0203436 L27.1883746,26.0203436 L27.1883746,30.7821701 L31.3001418,30.7821701 L31.3001418,43.0008247 L31.3001418,43.0008247 Z"></path>
            </g>
        </g>
    </g>
</svg>