<?xml version="1.0" encoding="UTF-8"?>
<svg width="32px" height="33px" viewBox="0 0 32 33" version="1.1" xmlns="http://www.w3.org/2000/svg" xmlns:xlink="http://www.w3.org/1999/xlink">
    <!-- Generator: Sketch 46.2 (44496) - http://www.bohemiancoding.com/sketch -->
    <title>Google-color</title>
    <desc>Created with Sketch.</desc>
    <defs></defs>
    <g id="Mobile" stroke="none" stroke-width="1" fill="none" fill-rule="evenodd">
        <g id="Mobile-–-Sign-In" transform="translate(-43.000000, -85.000000)">
            <g id="Google" transform="translate(29.000000, 74.589978)">
                <g transform="translate(14.447222, 11.032988)">
                    <path d="M6.58800918,16.0891251 C6.58800918,15.0672869 6.75772202,14.0876379 7.06062723,13.1687701 L1.75871202,9.12003118 C0.725397098,11.2180531 0.143217591,13.5820819 0.143217591,16.0891251 C0.143217591,18.5940231 0.72468101,20.9566217 1.75656375,23.0532135 L7.05561461,18.9966088 C6.75557376,18.0820314 6.58800918,17.1059578 6.58800918,16.0891251" id="Fill-1" fill="#FBBC05"></path>
                    <path d="M15.8971526,6.79318615 C18.1170252,6.79318615 20.1220715,7.5797656 21.697465,8.86689561 L26.2804279,4.29043336 C23.4876849,1.85918779 19.9072451,0.357536113 15.8971526,0.357536113 C9.67148391,0.357536113 4.32087472,3.91788073 1.75871202,9.12003118 L7.06062723,13.1687701 C8.28227328,9.46040556 11.764609,6.79318615 15.8971526,6.79318615" id="Fill-2" fill="#EA4335"></path>
                    <path d="M15.8971526,25.385064 C11.764609,25.385064 8.28227328,22.7178446 7.06062723,19.0094801 L1.75871202,23.0575039 C4.32087472,28.2603695 9.67148391,31.8207141 15.8971526,31.8207141 C19.7396805,31.8207141 23.4081991,30.4563563 26.1615573,27.8999731 L21.1288912,24.0092651 C19.7088888,24.9038204 17.9208171,25.385064 15.8971526,25.385064" id="Fill-3" fill="#34A853"></path>
                    <path d="M30.9349996,16.0891251 C30.9349996,15.1595312 30.791782,14.1584301 30.5769556,13.2288362 L15.8971526,13.2288362 L15.8971526,19.3069501 L24.3469904,19.3069501 C23.9244985,21.3792294 22.7744613,22.9724103 21.1288912,24.0092651 L26.1615573,27.8999731 C29.0538366,25.2155919 30.9349996,21.216908 30.9349996,16.0891251" id="Fill-4" fill="#4285F4"></path>
                </g>
            </g>
        </g>
    </g>
</svg>