<?xml version="1.0" encoding="UTF-8"?>
<svg width="33px" height="30px" viewBox="0 0 33 30" version="1.1" xmlns="http://www.w3.org/2000/svg" xmlns:xlink="http://www.w3.org/1999/xlink">
    <!-- Generator: Sketch 46.2 (44496) - http://www.bohemiancoding.com/sketch -->
    <title>LinkedIn-color</title>
    <desc>Created with Sketch.</desc>
    <defs></defs>
    <g id="Mobile" stroke="none" stroke-width="1" fill="none" fill-rule="evenodd">
        <g id="Mobile-–-Social-Sign-In" transform="translate(-43.000000, -321.000000)" fill="#FFFFFF">
            <g id="LinkedIn" transform="translate(29.000000, 308.500000)">
                <path d="M46.0149379,41.6732736 L39.0380421,41.6732736 L39.0380421,31.5848059 C39.0380421,28.9441632 37.9466841,27.1414698 35.5468101,27.1414698 C33.7111756,27.1414698 32.6903476,28.3579663 32.2151985,29.5303602 C32.0370176,29.9511724 32.0648584,30.5373693 32.0648584,31.1235663 L32.0648584,41.6732736 L25.1529244,41.6732736 C25.1529244,41.6732736 25.2420148,23.8025361 25.1529244,22.1780907 L32.0648584,22.1780907 L32.0648584,25.237708 C32.4731896,23.8999294 34.6818903,21.9906547 38.2065312,21.9906547 C42.5793875,21.9906547 46.0149379,24.7948444 46.0149379,30.8332242 L46.0149379,41.6732736 L46.0149379,41.6732736 Z M18.1630362,19.7395849 L18.118491,19.7395849 C15.8912297,19.7395849 14.447222,18.2492849 14.447222,16.3602239 C14.447222,14.4344108 15.9339189,12.97535 18.2057254,12.97535 C20.4756758,12.97535 21.8714261,14.4307355 21.9159714,16.3547111 C21.9159714,18.2437721 20.4756758,19.7395849 18.1630362,19.7395849 L18.1630362,19.7395849 L18.1630362,19.7395849 Z M15.2434679,22.1780907 L21.3962771,22.1780907 L21.3962771,41.6732736 L15.2434679,41.6732736 L15.2434679,22.1780907 L15.2434679,22.1780907 Z"></path>
            </g>
        </g>
    </g>
</svg>